<svg id="Layer_1" data-name="Layer 1" xmlns="http://www.w3.org/2000/svg" viewBox="0 0 126.9 469.72"><defs><style>.cls-1{fill:#f9f6f0;}</style></defs><path class="cls-1" d="M29.86,134.47c-.32,1.86-.7,3.72-.94,5.6-.72,5.59-1.11,11.24-2.11,16.77-4.47,24.6-8.69,49.25-13.91,73.68-1.68,7.85.67,14.69,1.52,22a20.23,20.23,0,0,1-.17,7.38l-2-4.11-1.69.29,3,21.84C8.52,270.75,5.42,264,5.31,256.7c-.33-23.78-.07-47.56,0-71.34a19.21,19.21,0,0,1,.87-5.9c4.34-13.21,2.28-27,3.83-40.49,1.84-15.83,4.08-31.56,9.31-46.7,2.08-6,6.58-9.27,12.46-11.06,5.69-1.73,11.32-3.67,17-5.52,8.3-2.71,11.07-11.4,5.68-18.27a42.56,42.56,0,0,1-8.8-24.93c-.23-7,2.31-14.79,5.74-21.05C55.84,3.35,64.32,1.8,73.16,3.23,81.76,4.62,87,10,89.56,18c4.06,12.77,1.86,24.95-4.41,36.51-1.84,3.39-5.33,5.76-4.84,10.49.54,5.17,3,9,8,10.64,5.49,1.79,10.9,3.94,16.49,5.32,9.43,2.33,13,9.46,15.24,17.76,5.64,20.95,7.93,42.32,8.29,64,.1,5.53,2.72,11,2.84,16.54.57,26.09,1.15,52.19.65,78.28-.13,6.68-4.18,13.28-7.38,19.68-.15-6.77,3.48-13.16.76-20.13-1.08,1.68-2,3.11-2.91,4.53l-.94-.31c.51-3.36.41-7,1.64-10,4.21-10.46,1.21-20.49-.76-30.75-3.23-16.9-5.92-33.9-8.94-50.84C111.25,158,109,146.31,106,134.22c-1.81,5.16-4.18,10.2-5.29,15.51-1.35,6.46-1.69,13.14-2.38,19.74a48.29,48.29,0,0,0,5.07,27.37c5.72,11.54,7.28,24.38,7.89,37.23A234.27,234.27,0,0,1,106,295.42c-3.32,15.2-6.39,30.45-9.52,45.69a16,16,0,0,0-.21,4c1.53,31.62-2.86,62.56-10,93.26a30.78,30.78,0,0,0,4.86,25.56c1.07,1.5,2.39,4.34,1.76,5.17-1.05,1.39-3.52,1.89-5.49,2.33-2.52.57-5.15.65-7.72,1-3,.44-6.82-2.64-6.68-6.44.27-7.54,1.43-15,1.77-22.57a165.68,165.68,0,0,0-.31-17.4c-1.15-19.38-2.69-38.74-3.52-58.13-.25-5.72,2.1-11.54,2-17.27-.85-32.07-2.09-64.12-3.22-96.18a3.58,3.58,0,0,0-1.38-2.76c-.52,6.31-1.34,12.62-1.52,18.94-.52,18.95-.53,37.91-1.24,56.85-.54,14.47.16,28.82.88,43.26.73,14.84-1.44,29.81-2.3,44.73-.53,9.11-1.39,18.23-1.34,27.35,0,7.19,1.5,14.36,1.86,21.56.28,5.92-3.13,8.33-9,7.29-2.26-.39-4.63-.08-6.93-.31-4.79-.5-5.41-2.21-3.22-6.55a67.47,67.47,0,0,0,5.4-13c3.23-12.2-2.71-23.41-4.42-35.09C43.26,394.86,39.28,373,41,350.86c.86-10.83-3.81-20.33-5.31-30.56-3.27-22.44-8.25-44.73-10.08-67.28-1.59-19.47-.11-39.5,8.7-57.5,8.16-16.68,4.43-32.91,1-49.41-.84-4.06-2.63-7.92-4-11.88Z" transform="translate(-5.15 -2.75)"/></svg>